<?xml version="1.0" encoding="utf-8"?>
<svg version="1.1" preserveAspectRatio="xMidYMid meet" viewBox="0 0 640 640" width="640" height="640" xmlns="http://www.w3.org/2000/svg">
  <defs>
    <path d="M257.06 224.38C270.72 234.15 339.06 282.99 462.06 370.9C364.01 460.25 309.54 509.89 298.65 519.82C288.53 526.57 283.91 532.41 284.75 537.35C285.61 542.29 291.44 545.36 302.25 546.56C325.47 532.05 511.24 415.9 534.46 401.39C545.91 391.8 551.63 381.64 551.63 370.9C551.63 360.16 544.93 349.34 531.54 338.45C505.9 323.59 300.77 204.72 275.13 189.86C262.08 181.68 252.53 183.47 246.51 195.23C240.49 207 244 216.71 257.06 224.38Z" id="ecuB4k3vE"/>
    <path d="M257.06 224.38C270.72 234.15 339.06 282.99 462.06 370.9C364.01 460.25 309.54 509.89 298.65 519.82C288.53 526.57 283.91 532.41 284.75 537.35C285.61 542.29 291.44 545.36 302.25 546.56C325.47 532.05 511.24 415.9 534.46 401.39C545.91 391.8 551.63 381.64 551.63 370.9C551.63 360.16 544.93 349.34 531.54 338.45C505.9 323.59 300.77 204.72 275.13 189.86C262.08 181.68 252.53 183.47 246.51 195.23C240.49 207 244 216.71 257.06 224.38Z" id="bMuQIlt77"/>
    <path d="M366.91 348.42C366.7 348.42 366.53 348.42 366.53 348.42C366.53 348.42 366.7 348.42 366.91 348.42C367.12 348.42 367.22 348.42 367.29 348.42C367.22 348.42 367.12 348.42 366.91 348.42Z" id="cvID1qSH3"/>
    <path d="M381.01 118.82C397.12 151.13 402.36 189.12 393.2 226.98C388.57 246.15 294.83 207.1 284.35 222.49C275.06 236.14 349.57 304.67 336.8 314.67C300.04 343.45 251.03 355.76 202.28 343.97C182.46 339.18 233.8 236.02 218.06 224.94C198.44 211.14 113.02 287.91 101.52 267.27C82.78 233.63 76.15 193.06 85.93 152.65C91.42 129.96 196.01 182.97 209.06 165.58C219.73 151.35 137.73 65.7 152.61 56.11C187.7 33.49 233.19 25.1 276.86 35.66C292.85 39.53 289.48 84.15 266.72 169.53C336.35 122.56 374.45 105.65 381.01 118.82Z" id="h369qDRjw4"/>
    <path d="M351.19 531.76C353.52 547.77 350.46 564.77 341.3 579.76C336.67 587.35 302.35 557.98 295.76 563.17C289.92 567.76 311.97 607.18 305.17 609.75C285.57 617.12 263.07 615.81 244.03 604.18C236.3 599.45 272.43 562.15 267.3 555.28C260.9 546.72 213.98 568.13 211.98 557.73C208.71 540.78 211.55 522.51 221.32 506.5C226.81 497.51 263.79 534.33 271.74 528.63C278.26 523.97 255.4 476.21 263.05 474.11C281.08 469.14 301.54 471.67 318.59 482.08C324.84 485.9 317.19 504.57 295.65 538.09C331.72 527.34 350.24 525.23 351.19 531.76Z" id="c4tAlFXxKT"/>
  </defs>
  <g>
    <g>
      <g>
        <g>
          <path d="M257.06 224.38C270.72 234.15 339.06 282.99 462.06 370.9C364.01 460.25 309.54 509.89 298.65 519.82C288.53 526.57 283.91 532.41 284.75 537.35C285.61 542.29 291.44 545.36 302.25 546.56C325.47 532.05 511.24 415.9 534.46 401.39C545.91 391.8 551.63 381.64 551.63 370.9C551.63 360.16 544.93 349.34 531.54 338.45C505.9 323.59 300.77 204.72 275.13 189.86C262.08 181.68 252.53 183.47 246.51 195.23C240.49 207 244 216.71 257.06 224.38Z" transform="matrix(1, 0, 0, 1, 0, 0)" opacity="1" fill="#9c3301" fill-opacity="1"/>
          <g>
            <path d="M257.06 224.38C270.72 234.15 339.06 282.99 462.06 370.9C364.01 460.25 309.54 509.89 298.65 519.82C288.53 526.57 283.91 532.41 284.75 537.35C285.61 542.29 291.44 545.36 302.25 546.56C325.47 532.05 511.24 415.9 534.46 401.39C545.91 391.8 551.63 381.64 551.63 370.9C551.63 360.16 544.93 349.34 531.54 338.45C505.9 323.59 300.77 204.72 275.13 189.86C262.08 181.68 252.53 183.47 246.51 195.23C240.49 207 244 216.71 257.06 224.38Z" transform="matrix(1, 0, 0, 1, 0, 0)" opacity="1" fill-opacity="0" stroke="#000000" stroke-width="0" stroke-opacity="0"/>
          </g>
        </g>
        <g>
          <path d="M257.06 224.38C270.72 234.15 339.06 282.99 462.06 370.9C364.01 460.25 309.54 509.89 298.65 519.82C288.53 526.57 283.91 532.41 284.75 537.35C285.61 542.29 291.44 545.36 302.25 546.56C325.47 532.05 511.24 415.9 534.46 401.39C545.91 391.8 551.63 381.64 551.63 370.9C551.63 360.16 544.93 349.34 531.54 338.45C505.9 323.59 300.77 204.72 275.13 189.86C262.08 181.68 252.53 183.47 246.51 195.23C240.49 207 244 216.71 257.06 224.38Z" transform="matrix(1, 0, 0, 1, 0, 0)" opacity="1" fill="#9c3301" fill-opacity="1"/>
          <g>
            <path d="M257.06 224.38C270.72 234.15 339.06 282.99 462.06 370.9C364.01 460.25 309.54 509.89 298.65 519.82C288.53 526.57 283.91 532.41 284.75 537.35C285.61 542.29 291.44 545.36 302.25 546.56C325.47 532.05 511.24 415.9 534.46 401.39C545.91 391.8 551.63 381.64 551.63 370.9C551.63 360.16 544.93 349.34 531.54 338.45C505.9 323.59 300.77 204.72 275.13 189.86C262.08 181.68 252.53 183.47 246.51 195.23C240.49 207 244 216.71 257.06 224.38Z" transform="matrix(1, 0, 0, 1, 0, 0)" opacity="1" fill-opacity="0" stroke="#000000" stroke-width="0" stroke-opacity="1"/>
          </g>
        </g>
        <g>
          <path d="M366.91 348.42C366.7 348.42 366.53 348.42 366.53 348.42C366.53 348.42 366.7 348.42 366.91 348.42C367.12 348.42 367.22 348.42 367.29 348.42C367.22 348.42 367.12 348.42 366.91 348.42Z" transform="matrix(1, 0, 0, 1, 0, 0)" opacity="1" fill="#9c3301" fill-opacity="1"/>
          <g>
            <path d="M366.91 348.42C366.7 348.42 366.53 348.42 366.53 348.42C366.53 348.42 366.7 348.42 366.91 348.42C367.12 348.42 367.22 348.42 367.29 348.42C367.22 348.42 367.12 348.42 366.91 348.42Z" transform="matrix(1, 0, 0, 1, 0, 0)" opacity="1" fill-opacity="0" stroke="#000000" stroke-width="0" stroke-opacity="0"/>
          </g>
        </g>
        <g>
          <path d="M381.01 118.82C397.12 151.13 402.36 189.12 393.2 226.98C388.57 246.15 294.83 207.1 284.35 222.49C275.06 236.14 349.57 304.67 336.8 314.67C300.04 343.45 251.03 355.76 202.28 343.97C182.46 339.18 233.8 236.02 218.06 224.94C198.44 211.14 113.02 287.91 101.52 267.27C82.78 233.63 76.15 193.06 85.93 152.65C91.42 129.96 196.01 182.97 209.06 165.58C219.73 151.35 137.73 65.7 152.61 56.11C187.7 33.49 233.19 25.1 276.86 35.66C292.85 39.53 289.48 84.15 266.72 169.53C336.35 122.56 374.45 105.65 381.01 118.82Z" transform="matrix(1, 0, 0, 1, 0, 0)" opacity="1" fill="#ff0093" fill-opacity="1"/>
          <path d="M381.01 118.82C397.12 151.13 402.36 189.12 393.2 226.98C388.57 246.15 294.83 207.1 284.35 222.49C275.06 236.14 349.57 304.67 336.8 314.67C300.04 343.45 251.03 355.76 202.28 343.97C182.46 339.18 233.8 236.02 218.06 224.94C198.44 211.14 113.02 287.91 101.52 267.27C82.78 233.63 76.15 193.06 85.93 152.65C91.42 129.96 196.01 182.97 209.06 165.58C219.73 151.35 137.73 65.7 152.61 56.11C187.7 33.49 233.19 25.1 276.86 35.66C292.85 39.53 289.48 84.15 266.72 169.53C336.35 122.56 374.45 105.65 381.01 118.82Z" transform="matrix(1, 0, 0, 1, 0, 0)" opacity="1" fill="#9c3301" fill-opacity="1"/>
          <g>
            <path d="M381.01 118.82C397.12 151.13 402.36 189.12 393.2 226.98C388.57 246.15 294.83 207.1 284.35 222.49C275.06 236.14 349.57 304.67 336.8 314.67C300.04 343.45 251.03 355.76 202.28 343.97C182.46 339.18 233.8 236.02 218.06 224.94C198.44 211.14 113.02 287.91 101.52 267.27C82.78 233.63 76.15 193.06 85.93 152.65C91.42 129.96 196.01 182.97 209.06 165.58C219.73 151.35 137.73 65.7 152.61 56.11C187.7 33.49 233.19 25.1 276.86 35.66C292.85 39.53 289.48 84.15 266.72 169.53C336.35 122.56 374.45 105.65 381.01 118.82Z" transform="matrix(1, 0, 0, 1, 0, 0)" opacity="1" fill-opacity="0" stroke="#000000" stroke-width="0" stroke-opacity="0"/>
          </g>
        </g>
        <g>
          <path d="M351.19 531.76C353.52 547.77 350.46 564.77 341.3 579.76C336.67 587.35 302.35 557.98 295.76 563.17C289.92 567.76 311.97 607.18 305.17 609.75C285.57 617.12 263.07 615.81 244.03 604.18C236.3 599.45 272.43 562.15 267.3 555.28C260.9 546.72 213.98 568.13 211.98 557.73C208.71 540.78 211.55 522.51 221.32 506.5C226.81 497.51 263.79 534.33 271.74 528.63C278.26 523.97 255.4 476.21 263.05 474.11C281.08 469.14 301.54 471.67 318.59 482.08C324.84 485.9 317.19 504.57 295.65 538.09C331.72 527.34 350.24 525.23 351.19 531.76Z" transform="matrix(1, 0, 0, 1, 0, 0)" opacity="1" fill="#9c3301" fill-opacity="1"/>
          <g>
            <path d="M351.19 531.76C353.52 547.77 350.46 564.77 341.3 579.76C336.67 587.35 302.35 557.98 295.76 563.17C289.92 567.76 311.97 607.18 305.17 609.75C285.57 617.12 263.07 615.81 244.03 604.18C236.3 599.45 272.43 562.15 267.3 555.28C260.9 546.72 213.98 568.13 211.98 557.73C208.71 540.78 211.55 522.51 221.32 506.5C226.81 497.51 263.79 534.33 271.74 528.63C278.26 523.97 255.4 476.21 263.05 474.11C281.08 469.14 301.54 471.67 318.59 482.08C324.84 485.9 317.19 504.57 295.65 538.09C331.72 527.34 350.24 525.23 351.19 531.76Z" transform="matrix(1, 0, 0, 1, 0, 0)" opacity="1" fill-opacity="0" stroke="#000000" stroke-width="0" stroke-opacity="0"/>
          </g>
        </g>
      </g>
    </g>
  </g>
</svg>